# xmcd
#
# Track frame offsets: 
#        150
#        21350
#        44862
#        63625
#        84125
#        104837
#        119915
#        141200
#        160817
#        180307
#        194242
#        218990
#        237875
#
# Disc length: 3463 seconds
#
# Revision: 4
# Processed by: cddbd v1.5.2PL0 Copyright (c) Steve Scherf et al.
# Submitted via: ExactAudioCopy v0.95a4
#
DISCID=cb0d850d
DTITLE=Andre Previn with Mundell Lowe, Ray Brown - Uptown
DYEAR=1990
DGENRE=Jazz
TTITLE0=Between The Devil and the Deep Blue Sea
TTITLE1=A Sleepin' Bee
TTITLE2=Come Rain Or Come Shine
TTITLE3=Stormy Weather
TTITLE4=Over The rainbow
TTITLE5=Let's Fall In Love
TTITLE6=Day Dream  -  Prelude To A Kiss
TTITLE7=Good Queen Bess
TTITLE8=Things Ain't What They Used To Be
TTITLE9=It Don't Mean A Thing If It Ain't Got That Swing
TTITLE10=Five O' Clock Whistle
TTITLE11=Come Sunday
TTITLE12=C Jam Blues
EXTD=1990 YEAR: 1990
EXTT0=
EXTT1=
EXTT2=
EXTT3=
EXTT4=
EXTT5=
EXTT6=
EXTT7=
EXTT8=
EXTT9=
EXTT10=
EXTT11=
EXTT12=
PLAYORDER=
